:SAMPLES-PER-SECOND 30
:FULLY-SPECIFIED
:DEGREES
866
root  10.9037 38.5528 -13.5918 -78.9789 -85.2454 71.2125
RightUpLeg  -13.0736 -8.42107 -6.56809
RightLeg  -3.24935 1.16334 1.19799
RightFoot  1.14196 -1.33045 12.1786
RightToes  5.23868e-010 0 -3.6325e-017
Spine  6.35178 -0.611845 -0.686155
Spine1  10.2047 0.489345 -5.18276
HEad  -17.1533 -6.65518 -4.89929
LeftShoulder1  0.132798 3.11876 -28.3204
LeftArm  1.35163 8.00424 -42.1067
LeftForeArm  17.645 -24.7972 -4.37628
LeftHand  -0.0487551 2.93224 1.61658
RightShoulder  -0.364494 -4.61399 25.7994
RightArm  15.9376 1.43625 51.3063
RightForeArm  3.16918 13.976 6.43627
RightHand  -0.621556 3.0402 -8.77464
LeftUpLeg  12.205 6.11873 -8.44618
LeftLeg  11.4041 -0.116951 -0.913054
LeftFoot  -15.4069 0.435072 9.61287
LeftToes  -4.9204e-010 1.02043e-011 -1.81609e-011
867
root  9.85963 38.386 -13.6781 -77.4438 -85.0469 69.8463
RightUpLeg  -13.0247 -8.12583 -6.07235
RightLeg  -4.27656 -1.5645 1.45324
RightFoot  0.0784872 -1.16441 11.5335
RightToes  5.23868e-010 0 -3.6325e-017
Spine  6.10731 -0.604895 -0.575563
Spine1  10.682 0.441822 -4.78675
HEad  -18.6542 -7.06156 -5.25117
LeftShoulder1  0.153563 3.06101 -28.531
LeftArm  1.76328 8.67981 -41.769
LeftForeArm  16.2717 -24.4123 -4.3589
LeftHand  -0.0574393 3.17902 2.21976
RightShoulder  -0.386006 -4.67524 25.9632
RightArm  15.5918 1.2225 51.1301
RightForeArm  4.11884 12.9941 6.69452
RightHand  -0.563227 2.92457 -8.08425
LeftUpLeg  13.7758 6.39077 -8.11249
LeftLeg  11.5693 -0.70432 -1.08253
LeftFoot  -16.8931 0.560211 9.43545
LeftToes  -4.9204e-010 1.02043e-011 -1.81609e-011
868
root  8.79706 38.2697 -13.7478 -75.6567 -85.1593 68.5992
RightUpLeg  -13.062 -8.02537 -5.32436
RightLeg  -3.34576 -3.50184 1.93232
RightFoot  1.69494 -1.07541 9.86685
RightToes  5.23868e-010 0 -3.6325e-017
Spine  6.01786 -0.684691 0.421435
Spine1  10.59 0.388724 -4.72998
HEad  -19.8583 -7.85138 -5.01403
LeftShoulder1  0.152813 3.06461 -28.6885
LeftArm  2.234 9.4587 -41.6202
LeftForeArm  15.7834 -22.6725 -4.19534
LeftHand  -0.0576583 2.33593 1.74508
RightShoulder  -0.387714 -4.67771 26.0369
RightArm  14.9617 0.470744 51.0452
RightForeArm  4.96224 12.0269 6.89722
RightHand  -0.574729 2.84177 -8.32575
LeftUpLeg  15.1472 6.34972 -7.74534
LeftLeg  11.2748 -0.961415 -0.927284
LeftFoot  -17.9656 0.626812 8.93161
LeftToes  -4.9204e-010 1.02043e-011 -1.81609e-011
869
root  7.72981 38.3403 -13.8121 -67.4575 -86.0049 60.8585
RightUpLeg  -13.8478 -7.39088 -3.77368
RightLeg  -0.65054 -4.18727 1.71553
RightFoot  7.51669 -0.471333 3.06637
RightToes  5.23868e-010 0 -3.6325e-017
Spine  6.11819 -1.01745 2.49537
Spine1  10.6177 -0.0142522 -4.17255
HEad  -21.3155 -6.54699 -5.60735
LeftShoulder1  0.0840935 3.26655 -29.2899
LeftArm  2.42152 10.0379 -40.9888
LeftForeArm  15.83 -19.9975 -4.7101
LeftHand  -0.050576 2.09123 1.41448
RightShoulder  -0.409004 -4.72871 26.4408
RightArm  14.4529 -0.0480421 50.538
RightForeArm  6.80396 10.7969 7.11397
RightHand  -0.489618 2.23548 -7.59509
LeftUpLeg  17.1634 6.33172 -6.395
LeftLeg  9.73147 -1.55521 -0.586428
LeftFoot  -17.8994 0.549474 7.70991
LeftToes  -4.9204e-010 1.02043e-011 -1.81609e-011
870
root  6.52156 38.3774 -13.89 -52.1487 -87.1165 45.7287
RightUpLeg  -14.0601 -6.49126 -2.30904
RightLeg  2.10754 -4.7174 1.34687
RightFoot  11.563 -0.160952 1.13727
RightToes  5.23868e-010 0 -3.6325e-017
Spine  6.00735 -1.29827 4.95788
Spine1  10.6453 -0.300467 -3.93718
HEad  -22.4523 -6.48582 -5.98722
LeftShoulder1  0.0723745 3.3013 -29.5947
LeftArm  0.175932 10.7019 -40.9056
LeftForeArm  18.9806 -16.4977 -5.85192
LeftHand  -0.0227535 2.61087 0.374834
RightShoulder  -0.443014 -4.81962 26.7357
RightArm  13.6515 -0.76904 49.9458
RightForeArm  8.65993 9.59605 7.16335
RightHand  -0.357685 1.12542 -6.50496
LeftUpLeg  18.9477 6.85849 -4.16048
LeftLeg  9.80006 -2.96352 -0.563454
LeftFoot  -17.9141 0.462131 6.15813
LeftToes  -4.9204e-010 1.02043e-011 -1.81609e-011
871
root  5.30298 38.4996 -13.9381 -16.5289 -88.5149 10.6259
RightUpLeg  -14.2629 -6.22305 -0.647168
RightLeg  5.18846 -4.07561 1.91058
RightFoot  10.0154 0.0271084 0.227132
RightToes  5.23868e-010 0 -3.6325e-017
Spine  5.71645 -1.49759 8.46149
Spine1  10.1914 -0.222611 -4.56574
HEad  -22.3246 -8.36244 -5.80264
LeftShoulder1  0.0873237 3.25924 -29.6492
LeftArm  -3.71265 11.7999 -41.3965
LeftForeArm  23.7186 -12.6584 -6.79423
LeftHand  -0.0171829 4.27243 -0.908678
RightShoulder  -0.512505 -5.00031 27.4289
RightArm  13.2256 -1.15005 48.8549
RightForeArm  8.4451 8.02627 7.30876
RightHand  -0.419462 1.68213 -7.01757
LeftUpLeg  19.8162 7.00153 -1.95056
LeftLeg  10.7547 -3.4955 -0.321433
LeftFoot  -17.0778 0.289579 3.71453
LeftToes  -4.9204e-010 1.02043e-011 -1.81609e-011
872
root  4.13991 38.6501 -14.0147 38.3638 -88.7536 -43.5558
RightUpLeg  -14.0187 -5.99498 0.706704
RightLeg  7.00826 -3.9195 2.07628
RightFoot  7.89749 0.085335 -0.188872
RightToes  5.23868e-010 0 -3.6325e-017
Spine  5.72116 -1.68607 10.3704
Spine1  9.01662 -0.456971 -3.99438
HEad  -21.6361 -8.10558 -6.29348
LeftShoulder1  0.0359654 3.4048 -30.1269
LeftArm  -6.44172 13.2959 -41.7669
LeftForeArm  27.4706 -9.48278 -7.02263
LeftHand  -0.0176701 4.995 -2.87538
RightShoulder  -0.485399 -4.93199 27.1342
RightArm  11.8634 -2.02973 48.7013
RightForeArm  9.8909 6.42566 6.88479
RightHand  -0.320493 0.825246 -6.0999
LeftUpLeg  19.4039 6.46934 -0.385859
LeftLeg  13.4136 -3.85486 -0.533521
LeftFoot  -15.5934 0.100731 0.165198
LeftToes  -4.9204e-010 1.02043e-011 -1.81609e-011
873
root  3.06318 38.7981 -14.1487 50.3933 -88.0876 -54.917
RightUpLeg  -13.6974 -5.66102 1.52599
RightLeg  8.4699 -4.16821 1.89471
RightFoot  6.24596 0.249174 -1.33532
RightToes  5.23868e-010 0 -3.6325e-017
Spine  5.50953 -1.89139 10.9485
Spine1  8.54305 -0.830999 -2.60529
HEad  -21.0494 -8.30947 -6.05423
LeftShoulder1  0.0747055 3.29614 -29.8534
LeftArm  -7.06324 14.9411 -42.6615
LeftForeArm  28.2157 -7.86844 -7.09387
LeftHand  -0.055523 6.50217 -1.92378
RightShoulder  -0.523827 -5.03869 27.3178
RightArm  11.0993 -2.58761 48.098
RightForeArm  8.6508 5.78957 6.59281
RightHand  -0.392487 1.02876 -7.22657
LeftUpLeg  17.5213 5.86137 0.921583
LeftLeg  18.3719 -4.73064 -1.43919
LeftFoot  -13.0233 0.0276622 -3.83061
LeftToes  -4.9204e-010 1.02043e-011 -1.81609e-011
